HIERARCHY
ROOT Hips
{
    OFFSET 0.000000 0.000000 0.000000
    CHANNELS 6 Xposition Yposition Zposition Zrotation Xrotation Yrotation
    JOINT Spine
    {
        OFFSET -0.000000 7.315584 0.000000
        CHANNELS 3 Zrotation Xrotation Yrotation
        JOINT Spine1
        {
            OFFSET -0.000000 21.742830 0.000000
            CHANNELS 3 Zrotation Xrotation Yrotation
            JOINT Neck
            {
                OFFSET -0.000000 21.653538 1.968503
                CHANNELS 3 Zrotation Xrotation Yrotation
                JOINT Head
                {
                    OFFSET -0.000000 12.490022 -1.784289
                    CHANNELS 3 Zrotation Xrotation Yrotation
                    End Site
                    {
                        OFFSET -0.000000 22.303610 0.000000
                    }
                }
            }
            JOINT LeftShoulder
            {
                OFFSET 3.565460 21.440739 -0.045508
                CHANNELS 3 Zrotation Xrotation Yrotation
                JOINT LeftArm
                {
                    OFFSET 5.865323 0.000000 0.000000
                    CHANNELS 3 Zrotation Xrotation Yrotation
                    JOINT LeftForeArm
                    {
                        OFFSET 30.083149 0.000000 0.000000
                        CHANNELS 3 Zrotation Xrotation Yrotation
                        JOINT LeftHand
                        {
                            OFFSET 21.313328 0.000000 0.000000
                            CHANNELS 3 Zrotation Xrotation Yrotation
                            End Site
                            {
                                OFFSET 13.382167 0.000000 0.000000
                            }
                        }
                    }
                }
            }
            JOINT RightShoulder
            {
                OFFSET -3.556053 21.440739 -0.045508
                CHANNELS 3 Zrotation Xrotation Yrotation
                JOINT RightArm
                {
                    OFFSET -5.865323 0.000000 0.000000
                    CHANNELS 3 Zrotation Xrotation Yrotation
                    JOINT RightForeArm
                    {
                        OFFSET -30.083149 0.000000 0.000000
                        CHANNELS 3 Zrotation Xrotation Yrotation
                        JOINT RightHand
                        {
                            OFFSET -21.313328 0.000000 0.000000
                            CHANNELS 3 Zrotation Xrotation Yrotation
                            End Site
                            {
                                OFFSET -13.382167 0.000000 0.000000
                            }
                        }
                    }
                }
            }
        }
    }
    JOINT LeftUpLeg
    {
        OFFSET 8.921444 0.000000 0.000000
        CHANNELS 3 Zrotation Xrotation Yrotation
        JOINT LeftLeg
        {
            OFFSET -0.000000 -39.632927 0.000000
            CHANNELS 3 Zrotation Xrotation Yrotation
            JOINT LeftFoot
            {
                OFFSET -0.000000 -38.058365 0.000000
                CHANNELS 3 Zrotation Xrotation Yrotation
                JOINT LeftToeBase
                {
                    OFFSET -0.000000 -5.798938 13.382167
                    CHANNELS 3 Zrotation Xrotation Yrotation
                    End Site
                    {
                        OFFSET -0.000000 0.000000 3.568577
                    }
                }
            }
        }
    }
    JOINT RightUpLeg
    {
        OFFSET -8.921444 0.000000 0.000000
        CHANNELS 3 Zrotation Xrotation Yrotation
        JOINT RightLeg
        {
            OFFSET -0.000000 -39.632927 0.000000
            CHANNELS 3 Zrotation Xrotation Yrotation
            JOINT RightFoot
            {
                OFFSET -0.000000 -38.058365 0.000000
                CHANNELS 3 Zrotation Xrotation Yrotation
                JOINT RightToeBase
                {
                    OFFSET -0.000000 -5.798938 13.382167
                    CHANNELS 3 Zrotation Xrotation Yrotation
                    End Site
                    {
                        OFFSET -0.000000 0.000000 3.568577
                    }
                }
            }
        }
    }
}
MOTION
Frames:    13
Frame Time:    0.004000
-12.666046    77.738342    -210.347321    -0.283206    -0.876054    8.920317    -0.429062    -8.339082    0.596880    -0.520074    -1.054005    0.623432    0.049650    31.203260    -0.698956    -0.582515    6.829416    -0.769317    14.890505    -1.398945    -6.030274    -19.732954    1.358326    1.693936    0.009816    1.145971    3.068138    -1.849679    1.155521    -0.608873    -11.491426    -0.674988    -5.905364    14.860121    -0.307634    -1.982298    -1.549229    1.222772    -1.625478    -0.234028    1.197031    1.860208    -1.203844    4.419232    -0.740343    -1.689196    0.914449    -1.591220    2.363460    -4.785648    3.428852    0.000000    0.000000    0.000000    -0.441418    5.643736    0.791517    3.171063    -0.782977    -0.414123    -2.503863    -4.734984    -10.249455    0.000000    0.000000    0.000000    
-12.664850    77.738068    -210.348724    -0.280953    -0.875143    8.924365    -0.438198    -8.335261    0.595761    -0.509018    -1.056770    0.622983    0.033796    31.182264    -0.689729    -0.565912    6.855304    -0.760545    14.877172    -1.389182    -6.026773    -19.723366    1.322134    1.688813    0.098974    0.976983    3.082719    -1.981654    0.983150    -0.509301    -11.498989    -0.681367    -5.905149    14.863006    -0.310339    -1.994653    -1.596311    1.113589    -1.649549    -0.288248    1.085557    2.003251    -1.206157    4.414376    -0.752699    -1.689394    0.924311    -1.569615    2.357896    -4.794978    3.417961    0.000000    0.000000    0.000000    -0.445162    5.643407    0.783227    3.172220    -0.782296    -0.390758    -2.746016    -4.586828    -10.329373    0.000000    0.000000    0.000000    
-12.664464    77.738663    -210.347992    -0.280317    -0.877175    8.923723    -0.433652    -8.330959    0.596187    -0.524172    -1.063268    0.622961    0.046930    31.197250    -0.696439    -0.580695    6.828470    -0.766995    14.887042    -1.390531    -6.035851    -19.728668    1.362382    1.699105    0.097972    0.959020    3.090054    -1.952330    0.965125    -0.509869    -11.484219    -0.688057    -5.889237    14.852021    -0.313221    -2.013376    -1.589992    1.117957    -1.648540    -0.277753    1.090252    2.004983    -1.209999    4.420894    -0.739480    -1.680286    0.916011    -1.570142    2.333982    -4.789553    3.395890    0.000000    0.000000    0.000000    -0.444689    5.646882    0.781434    3.168344    -0.787959    -0.399705    -2.516385    -4.726322    -10.252427    0.000000    0.000000    0.000000    
-12.663070    77.738663    -210.349060    -0.284691    -0.866092    8.923498    -0.430290    -8.344024    0.595214    -0.522178    -1.059433    0.621765    0.027253    31.197618    -0.690300    -0.567241    6.810239    -0.762472    14.888726    -1.406773    -6.032402    -19.731188    1.370196    1.708418    0.097047    0.965003    3.078048    -1.987230    0.971134    -0.501608    -11.491291    -0.687130    -5.893021    14.856470    -0.324855    -2.008525    -1.561065    1.223069    -1.611634    -0.231786    1.197390    1.843314    -1.204877    4.402183    -0.742192    -1.689850    0.929266    -1.577812    2.349480    -4.796024    3.417385    0.000000    0.000000    0.000000    -0.447013    5.634638    0.791687    3.175674    -0.782034    -0.386933    -2.742249    -4.590926    -10.327718    0.000000    0.000000    0.000000    
-12.661690    77.739021    -210.348602    -0.283281    -0.870040    8.918693    -0.434023    -8.338638    0.600326    -0.518653    -1.061593    0.627153    0.028186    31.194561    -0.694265    -0.564643    6.810196    -0.766280    14.889334    -1.409323    -6.038025    -19.731270    1.382235    1.702964    0.088167    0.964931    3.096480    -1.953926    0.971384    -0.517154    -11.489758    -0.677547    -5.898328    14.848911    -0.338777    -2.004566    -1.544076    1.226294    -1.624111    -0.255963    1.200334    1.842148    -1.208150    4.414129    -0.745363    -1.686312    0.912622    -1.560164    2.344300    -4.781220    3.402388    0.000000    0.000000    0.000000    -0.445668    5.635068    0.772790    3.167560    -0.773173    -0.370731    -2.738245    -4.587265    -10.328505    0.000000    0.000000    0.000000    
-12.660458    77.738953    -210.348892    -0.281807    -0.867648    8.927011    -0.434765    -8.337380    0.593272    -0.525767    -1.065693    0.620093    0.018374    31.191540    -0.684394    -0.552653    6.807053    -0.756361    14.887126    -1.416921    -6.031787    -19.728392    1.399912    1.709373    0.096128    0.965041    3.093957    -1.940981    0.970994    -0.503869    -11.489161    -0.684412    -5.886036    14.850156    -0.329405    -2.016451    -1.540112    1.221363    -1.621468    -0.263746    1.195337    1.839125    -1.207612    4.403323    -0.749155    -1.692789    0.930535    -1.612248    2.331606    -4.791122    3.454227    0.000000    0.000000    0.000000    -0.448156    5.634444    0.788067    3.171475    -0.779459    -0.407448    -2.698349    -4.594107    -10.314927    0.000000    0.000000    0.000000    
-12.659222    77.739151    -210.345032    -0.278039    -0.887139    8.922856    -0.439926    -8.321794    0.598799    -0.518549    -1.057467    0.626112    0.018253    31.187468    -0.692298    -0.557140    6.792756    -0.765111    14.879655    -1.418573    -6.043289    -19.715813    1.392628    1.712358    0.084944    0.974252    3.102826    -1.944927    0.980511    -0.501933    -11.493841    -0.693021    -5.900148    14.857219    -0.320959    -2.019120    -1.552224    1.289898    -1.566744    -0.105461    1.267316    1.534495    -1.203162    4.433064    -0.752524    -1.707179    0.917046    -1.582412    2.349515    -4.782685    3.435639    0.000000    0.000000    0.000000    -0.447784    5.660959    0.784100    3.167201    -0.785526    -0.392554    -2.757584    -4.589761    -10.317528    0.000000    0.000000    0.000000    
-12.658861    77.739799    -210.349747    -0.284659    -0.865630    8.931109    -0.439520    -8.336892    0.593082    -0.516780    -1.068306    0.620305    0.001493    31.196102    -0.686920    -0.541373    6.780118    -0.760689    14.885759    -1.418051    -6.043382    -19.723930    1.389812    1.714206    0.092477    0.978932    3.105377    -1.952353    0.984771    -0.487111    -11.484319    -0.674810    -5.890643    14.839664    -0.333257    -2.017474    -1.539153    1.286639    -1.578929    -0.101884    1.264070    1.551552    -1.204956    4.404731    -0.741426    -1.692554    0.923138    -1.593453    2.358946    -4.784684    3.416766    0.000000    0.000000    0.000000    -0.444977    5.631900    0.787702    3.167741    -0.782443    -0.431372    -2.698563    -4.578013    -10.296946    0.000000    0.000000    0.000000    
-12.658175    77.738380    -210.347626    -0.281469    -0.883710    8.933849    -0.443156    -8.315852    0.591412    -0.516597    -1.070396    0.618788    0.011407    31.183630    -0.684814    -0.554370    6.789792    -0.758085    14.890388    -1.406165    -6.047648    -19.718277    1.384663    1.713499    0.082236    0.975647    3.115747    -1.923469    0.981593    -0.488653    -11.494340    -0.668135    -5.899616    14.851092    -0.339311    -2.008831    -1.537516    1.283950    -1.573487    -0.134153    1.261047    1.530077    -1.203584    4.421626    -0.753070    -1.697947    0.925646    -1.586223    2.355319    -4.796847    3.429303    0.000000    0.000000    0.000000    -0.444222    5.655614    0.776549    3.164464    -0.788706    -0.411930    -2.729500    -4.582940    -10.301339    0.000000    0.000000    0.000000    
-12.655708    77.740021    -210.347656    -0.277402    -0.878210    8.931334    -0.449846    -8.322969    0.591525    -0.515767    -1.065575    0.619515    0.007939    31.178314    -0.683183    -0.550046    6.785620    -0.756582    14.894146    -1.418084    -6.047206    -19.721312    1.390930    1.717619    0.081545    0.983838    3.124716    -1.930498    0.989887    -0.487283    -11.486362    -0.679462    -5.896540    14.840739    -0.338583    -2.015306    -1.574161    1.171514    -1.615640    -0.206332    1.146250    1.717238    -1.212473    4.424993    -0.758247    -1.695203    0.907080    -1.551419    2.340428    -4.774999    3.400477    0.000000    0.000000    0.000000    -0.449992    5.647269    0.766724    3.159832    -0.778902    -0.385482    -2.710611    -4.586751    -10.314842    0.000000    0.000000    0.000000    
-12.654787    77.739563    -210.348083    -0.277152    -0.872018    8.933815    -0.452105    -8.328603    0.590943    -0.520200    -1.065929    0.618987    0.013551    31.183558    -0.686406    -0.549767    6.766975    -0.759224    14.905826    -1.423187    -6.067635    -19.722181    1.382272    1.740800    0.077541    0.992664    3.127928    -1.941799    0.999052    -0.499167    -11.481891    -0.680339    -5.900929    14.835792    -0.322184    -2.011264    -1.574622    1.164960    -1.622925    -0.212432    1.139461    1.732212    -1.212689    4.418446    -0.762051    -1.694834    0.914878    -1.565598    2.340158    -4.779850    3.408592    0.000000    0.000000    0.000000    -0.455556    5.641562    0.780993    3.173306    -0.775763    -0.413417    -2.741993    -4.591519    -10.313005    0.000000    0.000000    0.000000    
-12.654620    77.739838    -210.347458    -0.278631    -0.877860    8.933365    -0.470043    -8.351986    0.602500    -0.502247    -1.015045    0.632485    0.071136    31.152170    -0.710728    -0.583489    6.783139    -0.778749    14.934141    -1.421947    -6.098498    -19.747019    1.349413    1.730951    0.087014    0.990360    3.140796    -1.947547    0.996074    -0.477299    -11.482369    -0.694012    -5.915133    14.827340    -0.330165    -2.030420    -1.566217    1.164465    -1.617228    -0.228064    1.138925    1.726090    -1.205556    4.420504    -0.755886    -1.705751    0.921317    -1.597077    2.355057    -4.784835    3.443804    0.000000    0.000000    0.000000    -0.451442    5.646186    0.800998    3.166006    -0.778371    -0.406614    -2.705179    -4.594164    -10.333111    0.000000    0.000000    0.000000    
-12.654464    77.740005    -210.347397    -0.281518    -0.881577    8.940120    -0.473494    -8.346136    0.600193    -0.494163    -1.017552    0.630449    0.003579    31.174553    -0.701854    -0.487972    6.729361    -0.771552    14.919241    -1.429512    -6.102993    -19.725019    1.339632    1.737855    0.076520    1.002423    3.141148    -1.934864    1.008518    -0.482334    -11.486156    -0.683600    -5.918808    14.824300    -0.342089    -2.027978    -1.582371    1.109349    -1.653668    -0.311588    1.081147    1.994333    -1.201666    4.424277    -0.770716    -1.706421    0.918299    -1.574881    2.369755    -4.782185    3.427101    0.000000    0.000000    0.000000    -0.446307    5.651775    0.797049    3.168699    -0.779263    -0.425368    -2.681708    -4.577722    -10.335022    0.000000    0.000000    0.000000    
